Coordinates
version=1
nRows=24
nColumns=38
inDegrees=no

Units are S.I. units (second, meters, Newtons, ...)
If the header above contains a line with 'inDegrees', this indicates whether rotational values are in degrees (yes) or radians (no).

endheader
time	pelvis_tilt	pelvis_list	pelvis_rotation	pelvis_tx	pelvis_ty	pelvis_tz	hip_flexion_r	hip_adduction_r	hip_rotation_r	knee_angle_r	ankle_angle_r	subtalar_angle_r	mtp_angle_r	hip_flexion_l	hip_adduction_l	hip_rotation_l	knee_angle_l	ankle_angle_l	subtalar_angle_l	mtp_angle_l	lumbar_extension	lumbar_bending	lumbar_rotation	arm_flex_r	arm_add_r	arm_rot_r	elbow_flex_r	pro_sup_r	wrist_flex_r	wrist_dev_r	arm_flex_l	arm_add_l	arm_rot_l	elbow_flex_l	pro_sup_l	wrist_flex_l	wrist_dev_l
2.33	0.357	1.24518	-1.77054	0.585763	-0.38477	0.927444	-0.111273	-0.201756	-0.618812	0.641785	-0.048473	0	0	0.101854	-0.0262765	-0.146993	1.48634	-0.167181	0	0	-0.319894	0.0270379	0.226976	-0.282987	-0.651801	-0.25411	1.64794	0.695053	0	0	0.558709	-0.302165	0.545721	0.8984	0.862407	0	0
2.34	0.501613	1.26731	-1.89021	0.589839	-0.3903	0.926099	-0.0768506	-0.259938	-0.64641	0.687315	-0.0291338	0	0	0.10934	0.249836	0.27403	1.45501	-0.0665995	0	0	-0.289916	-0.00392484	0.201008	-0.27879	-0.648291	-0.256376	1.64298	0.695801	0	0	0.538654	-0.250863	0.435947	0.876179	0.919015	0	0
2.35	0.512761	1.26596	-1.90876	0.588651	-0.399773	0.926351	-0.088148	-0.261132	-0.644696	0.684637	-0.0214121	0	0	0.1295	0.254355	0.260596	1.43401	-0.0600172	0	0	-0.290551	-0.0114575	0.204183	-0.272351	-0.652299	-0.250124	1.64151	0.694545	0	0	0.56324	-0.296976	0.540751	0.890219	0.86616	0	0
2.36	0.522781	1.2658	-1.92562	0.587573	-0.409311	0.926469	-0.098325	-0.261614	-0.643675	0.682085	-0.0174786	0	0	0.148826	0.25725	0.249351	1.40684	-0.0558019	0	0	-0.288898	-0.0169704	0.210607	-0.271318	-0.654936	-0.249838	1.64166	0.6954	0	0	0.564859	-0.296522	0.542008	0.889502	0.866636	0	0
2.37	0.531406	1.26394	-1.94098	0.586438	-0.418772	0.926635	-0.11065	-0.261881	-0.641908	0.678338	-0.00777802	0	0	0.164553	0.258725	0.237755	1.37203	-0.0579085	0	0	-0.289267	-0.022865	0.217797	-0.271448	-0.660112	-0.248994	1.64232	0.689309	0	0	0.569211	-0.296873	0.549499	0.888164	0.858164	0	0
2.38	0.538751	1.26288	-1.95431	0.585498	-0.428201	0.926625	-0.122223	-0.261943	-0.640705	0.675154	-0.00546796	0	0	0.178967	0.25951	0.22915	1.3328	-0.0590762	0	0	-0.289281	-0.0274852	0.224175	-0.271967	-0.662927	-0.250146	1.64425	0.685457	0	0	0.571578	-0.296324	0.552192	0.888239	0.856927	0	0
2.39	0.426105	1.23768	-1.88346	0.579348	-0.441899	0.928685	-0.180645	-0.219601	-0.611395	0.631032	-0.00248712	0	0	0.190276	0.00535705	-0.234399	1.31724	-0.160094	0	0	-0.31925	-0.0136675	0.269698	-0.28402	-0.670406	-0.256375	1.65455	0.674483	0	0	0.573628	-0.299307	0.56457	0.894268	0.848295	0	0
2.4	0.436932	1.23802	-1.89862	0.578732	-0.451463	0.928384	-0.190121	-0.22352	-0.613638	0.633387	0.00355525	0	0	0.201447	0.0115873	-0.242862	1.27289	-0.161933	0	0	-0.317475	-0.0186438	0.273948	-0.284635	-0.671762	-0.257901	1.65603	0.674288	0	0	0.574388	-0.298805	0.56472	0.894878	0.848192	0	0
2.41	0.5593	1.2632	-1.98815	0.58332	-0.456666	0.925907	-0.155723	-0.260202	-0.638747	0.665257	0.0134402	0	0	0.211648	0.258336	0.212072	1.18811	-0.0719931	0	0	-0.286004	-0.0378163	0.238238	-0.273158	-0.669225	-0.253602	1.64889	0.678313	0	0	0.57331	-0.291224	0.54618	0.888182	0.859011	0	0
2.42	0.442772	1.23928	-1.9101	0.577845	-0.470256	0.927724	-0.21755	-0.216634	-0.609816	0.612895	0.0160004	0	0	0.21823	0.0192903	-0.255514	1.17579	-0.172647	0	0	-0.315574	-0.0218574	0.277741	-0.280953	-0.677415	-0.256336	1.65701	0.670468	0	0	0.574343	-0.298735	0.562568	0.897132	0.847097	0	0
2.43	0.564634	1.26736	-1.99697	0.582444	-0.4754	0.924734	-0.179523	-0.251048	-0.63987	0.649163	0.032895	0	0	0.226193	0.253273	0.208014	1.07699	-0.080488	0	0	-0.281523	-0.0393329	0.239634	-0.268257	-0.672584	-0.251864	1.64944	0.681537	0	0	0.574374	-0.295355	0.550892	0.892308	0.856132	0	0
2.44	0.569279	1.27087	-2.0022	0.582113	-0.484787	0.923866	-0.189821	-0.246799	-0.642449	0.642296	0.0359655	0	0	0.231405	0.251075	0.206365	1.01639	-0.0823259	0	0	-0.277651	-0.0398148	0.239777	-0.266446	-0.673964	-0.251241	1.64959	0.682032	0	0	0.574731	-0.296079	0.551329	0.893231	0.855042	0	0
2.45	0.45534	1.24548	-1.92698	0.577079	-0.498606	0.925486	-0.253191	-0.209675	-0.616322	0.591879	0.0328987	0	0	0.231008	0.0232766	-0.304895	1.00904	-0.182149	0	0	-0.308039	-0.0255646	0.279767	-0.275711	-0.682021	-0.255673	1.65811	0.676553	0	0	0.574447	-0.299591	0.560998	0.899891	0.846873	0	0
2.46	0.580795	1.27865	-2.01331	0.581648	-0.5035	0.921764	-0.208957	-0.239414	-0.649493	0.632313	0.0475755	0	0	0.233556	0.245039	0.197424	0.882735	-0.0797985	0	0	-0.26924	-0.0408715	0.238339	-0.261296	-0.674458	-0.25026	1.64872	0.682826	0	0	0.576457	-0.298003	0.553151	0.894391	0.851596	0	0
2.47	0.589778	1.28733	-2.0194	0.581821	-0.512907	0.919994	-0.212683	-0.235312	-0.655453	0.632329	0.0538704	0	0	0.234433	0.243784	0.215412	0.821885	-0.0771555	0	0	-0.259748	-0.0392601	0.23606	-0.260747	-0.673893	-0.251144	1.6488	0.68408	0	0	0.57638	-0.29821	0.55343	0.894846	0.85179	0	0
2.48	0.59423	1.29296	-2.02235	0.581713	-0.522541	0.918549	-0.220863	-0.230552	-0.66088	0.629521	0.0620481	0	0	0.23192	0.236112	0.199793	0.743322	-0.0767088	0	0	-0.253583	-0.0385123	0.234439	-0.258932	-0.672791	-0.250816	1.64793	0.687122	0	0	0.5762	-0.299662	0.554125	0.896555	0.850827	0	0
2.49	0.590276	1.29555	-2.01854	0.581339	-0.532349	0.917558	-0.235483	-0.221715	-0.661618	0.616783	0.0668762	0	0	0.223347	0.222684	0.157828	0.645116	-0.0782502	0	0	-0.251432	-0.0373882	0.234158	-0.25679	-0.671456	-0.250219	1.64704	0.690002	0	0	0.574669	-0.298826	0.548585	0.897616	0.852959	0	0
2.5	0.581958	1.29942	-2.0093	0.581171	-0.542198	0.9163	-0.249216	-0.211457	-0.663282	0.605354	0.0704677	0	0	0.21256	0.210238	0.129503	0.557817	-0.0899944	0	0	-0.24857	-0.0342921	0.232276	-0.254154	-0.670703	-0.248598	1.64641	0.694024	0	0	0.575348	-0.303453	0.554216	0.901258	0.84952	0	0
2.51	0.572484	1.30232	-1.99945	0.58111	-0.552257	0.915089	-0.263541	-0.20276	-0.666093	0.596402	0.0730994	0	0	0.198664	0.198519	0.0902256	0.468819	-0.108172	0	0	-0.246281	-0.0312528	0.231364	-0.252831	-0.669293	-0.248888	1.64604	0.696681	0	0	0.575039	-0.305172	0.555305	0.903298	0.847941	0	0
2.52	0.563408	1.30411	-1.99063	0.581182	-0.562495	0.914013	-0.278815	-0.19528	-0.667977	0.587501	0.0733693	0	0	0.181962	0.189406	0.0453434	0.38134	-0.128737	0	0	-0.244668	-0.0287646	0.231066	-0.252135	-0.667566	-0.249829	1.64547	0.698444	0	0	0.574521	-0.305784	0.555193	0.904219	0.848295	0	0
2.53	0.557415	1.30513	-1.98509	0.581431	-0.572844	0.912938	-0.293172	-0.190868	-0.670699	0.582863	0.0727873	0	0	0.16353	0.184676	0.00228452	0.298566	-0.1501	0	0	-0.243378	-0.0271996	0.231777	-0.253444	-0.66542	-0.25297	1.6457	0.701207	0	0	0.574863	-0.305084	0.555763	0.903596	0.84962	0	0
2.54	0.552872	1.30545	-1.98058	0.581835	-0.583307	0.911823	-0.307002	-0.188283	-0.674675	0.581661	0.0723633	0	0	0.144144	0.183424	-0.0350385	0.223353	-0.169263	0	0	-0.2421	-0.0262652	0.232454	-0.255838	-0.66347	-0.256343	1.64648	0.702139	0	0	0.576002	-0.303784	0.557268	0.901632	0.851561	0	0
2.55	0.5483	1.30565	-1.97639	0.582321	-0.593936	0.910692	-0.320027	-0.186092	-0.676374	0.581761	0.0728185	0	0	0.123451	0.184196	-0.0651565	0.152546	-0.198153	0	0	-0.240395	-0.024871	0.234679	-0.260755	-0.661635	-0.261666	1.64831	0.703889	0	0	0.565371	-0.282213	0.50977	0.892789	0.893921	0	0
2.56	0.544805	1.30595	-1.97251	0.582906	-0.604564	0.909282	-0.331356	-0.185017	-0.67757	0.586218	0.0723868	0	0	0.105933	0.186585	-0.08258	0.0983558	-0.224835	0	0	-0.239027	-0.0248002	0.233806	-0.262352	-0.663474	-0.260984	1.6486	0.697872	0	0	0.57948	-0.303586	0.565551	0.899517	0.850049	0	0
